{
    "asset" : {
        "generator" : "Khronos glTF Blender I/O v3.2.43",
        "version" : "2.0"
    },
    "scene" : 0,
    "scenes" : [
        {
            "name" : "Scene",
            "nodes" : [
                8
            ]
        }
    ],
    "nodes" : [
        {
            "mesh" : 0,
            "name" : "Cube.026_Black.001_0"
        },
        {
            "mesh" : 1,
            "name" : "Cube.026_Material.001_0"
        },
        {
            "mesh" : 2,
            "name" : "Cube.026_Metal.001_0"
        },
        {
            "mesh" : 3,
            "name" : "Cube.026_Red.001_0"
        },
        {
            "mesh" : 4,
            "name" : "Cube.026_Window.001_0"
        },
        {
            "children" : [
                0,
                1,
                2,
                3,
                4
            ],
            "name" : "Cube.026",
            "rotation" : [
                -0.7027404308319092,
                0,
                0,
                0.7114463448524475
            ],
            "scale" : [
                50.342620849609375,
                50.342620849609375,
                45.87511444091797
            ]
        },
        {
            "children" : [
                5
            ],
            "name" : "RootNode"
        },
        {
            "children" : [
                6
            ],
            "name" : "0e41b21b9737489fabc557911c441d08.fbx",
            "rotation" : [
                0.7071068286895752,
                0,
                0,
                0.7071067094802856
            ]
        },
        {
            "children" : [
                7
            ],
            "name" : "harvestor",
            "rotation" : [
                -0.7071068286895752,
                0,
                0,
                0.7071067094802856
            ]
        }
    ],
    "materials" : [
        {
            "doubleSided" : true,
            "name" : "Black.001",
            "pbrMetallicRoughness" : {
                "baseColorFactor" : [
                    0.00017631700029596686,
                    0.00017631700029596686,
                    0.00017631700029596686,
                    1
                ],
                "metallicFactor" : 0,
                "roughnessFactor" : 0.9999606013298035
            }
        },
        {
            "doubleSided" : true,
            "emissiveFactor" : [
                1,
                1,
                0.001757810008712113
            ],
            "name" : "Material.001",
            "pbrMetallicRoughness" : {
                "baseColorFactor" : [
                    1,
                    0.8578639030456543,
                    0.47230732440948486,
                    1
                ],
                "metallicFactor" : 0,
                "roughnessFactor" : 0.8907968997955322
            }
        },
        {
            "doubleSided" : true,
            "name" : "Metal.001",
            "pbrMetallicRoughness" : {
                "baseColorFactor" : [
                    0.1574150025844574,
                    0.1890539973974228,
                    0.21873000264167786,
                    1
                ],
                "metallicFactor" : 0,
                "roughnessFactor" : 0.9587512016296387
            }
        },
        {
            "doubleSided" : true,
            "name" : "Red.001",
            "pbrMetallicRoughness" : {
                "baseColorFactor" : [
                    0.3317430019378662,
                    0.029380299150943756,
                    0.01899930089712143,
                    1
                ],
                "metallicFactor" : 0,
                "roughnessFactor" : 0.9792240262031555
            }
        },
        {
            "doubleSided" : true,
            "name" : "Window.001",
            "pbrMetallicRoughness" : {
                "baseColorFactor" : [
                    0.800000011920929,
                    0.34842100739479065,
                    0.15663400292396545,
                    1
                ],
                "metallicFactor" : 0,
                "roughnessFactor" : 0.9037194848060608
            }
        }
    ],
    "meshes" : [
        {
            "name" : "Cube.026_Black.001_0",
            "primitives" : [
                {
                    "attributes" : {
                        "POSITION" : 0,
                        "NORMAL" : 1,
                        "TEXCOORD_0" : 2
                    },
                    "indices" : 3,
                    "material" : 0
                }
            ]
        },
        {
            "name" : "Cube.026_Material.001_0",
            "primitives" : [
                {
                    "attributes" : {
                        "POSITION" : 4,
                        "NORMAL" : 5,
                        "TEXCOORD_0" : 6
                    },
                    "indices" : 7,
                    "material" : 1
                }
            ]
        },
        {
            "name" : "Cube.026_Metal.001_0",
            "primitives" : [
                {
                    "attributes" : {
                        "POSITION" : 8,
                        "NORMAL" : 9,
                        "TEXCOORD_0" : 10
                    },
                    "indices" : 11,
                    "material" : 2
                }
            ]
        },
        {
            "name" : "Cube.026_Red.001_0",
            "primitives" : [
                {
                    "attributes" : {
                        "POSITION" : 12,
                        "NORMAL" : 13,
                        "TEXCOORD_0" : 14
                    },
                    "indices" : 15,
                    "material" : 3
                }
            ]
        },
        {
            "name" : "Cube.026_Window.001_0",
            "primitives" : [
                {
                    "attributes" : {
                        "POSITION" : 16,
                        "NORMAL" : 17,
                        "TEXCOORD_0" : 18
                    },
                    "indices" : 19,
                    "material" : 4
                }
            ]
        }
    ],
    "accessors" : [
        {
            "bufferView" : 0,
            "componentType" : 5126,
            "count" : 10297,
            "max" : [
                4.928185939788818,
                8.837881088256836,
                2.1766016483306885
            ],
            "min" : [
                -4.921859264373779,
                -5.811110973358154,
                -3.945509672164917
            ],
            "type" : "VEC3"
        },
        {
            "bufferView" : 1,
            "componentType" : 5126,
            "count" : 10297,
            "type" : "VEC3"
        },
        {
            "bufferView" : 2,
            "componentType" : 5126,
            "count" : 10297,
            "type" : "VEC2"
        },
        {
            "bufferView" : 3,
            "componentType" : 5123,
            "count" : 11820,
            "type" : "SCALAR"
        },
        {
            "bufferView" : 4,
            "componentType" : 5126,
            "count" : 343,
            "max" : [
                2.468878984451294,
                -1.5278295278549194,
                1.514843225479126
            ],
            "min" : [
                -2.4438316822052,
                -1.8099782466888428,
                1.0314686298370361
            ],
            "type" : "VEC3"
        },
        {
            "bufferView" : 5,
            "componentType" : 5126,
            "count" : 343,
            "type" : "VEC3"
        },
        {
            "bufferView" : 6,
            "componentType" : 5126,
            "count" : 343,
            "type" : "VEC2"
        },
        {
            "bufferView" : 7,
            "componentType" : 5123,
            "count" : 384,
            "type" : "SCALAR"
        },
        {
            "bufferView" : 8,
            "componentType" : 5126,
            "count" : 4841,
            "max" : [
                5.043508529663086,
                4.867156028747559,
                -1.5647966861724854
            ],
            "min" : [
                -5.0371809005737305,
                -5.645816802978516,
                -3.717449903488159
            ],
            "type" : "VEC3"
        },
        {
            "bufferView" : 9,
            "componentType" : 5126,
            "count" : 4841,
            "type" : "VEC3"
        },
        {
            "bufferView" : 10,
            "componentType" : 5126,
            "count" : 4841,
            "type" : "VEC2"
        },
        {
            "bufferView" : 11,
            "componentType" : 5123,
            "count" : 5400,
            "type" : "SCALAR"
        },
        {
            "bufferView" : 12,
            "componentType" : 5126,
            "count" : 1876,
            "max" : [
                5.043508529663086,
                7.548089027404785,
                2.1661014556884766
            ],
            "min" : [
                -5.0371809005737305,
                -5.093580722808838,
                -3.5849428176879883
            ],
            "type" : "VEC3"
        },
        {
            "bufferView" : 13,
            "componentType" : 5126,
            "count" : 1876,
            "type" : "VEC3"
        },
        {
            "bufferView" : 14,
            "componentType" : 5126,
            "count" : 1876,
            "type" : "VEC2"
        },
        {
            "bufferView" : 15,
            "componentType" : 5123,
            "count" : 2202,
            "type" : "SCALAR"
        },
        {
            "bufferView" : 16,
            "componentType" : 5126,
            "count" : 16,
            "max" : [
                0.8840178847312927,
                0.8220725059509277,
                1.1383157968521118
            ],
            "min" : [
                -0.8840178847312927,
                -1.524391770362854,
                -0.9329830408096313
            ],
            "type" : "VEC3"
        },
        {
            "bufferView" : 17,
            "componentType" : 5126,
            "count" : 16,
            "type" : "VEC3"
        },
        {
            "bufferView" : 18,
            "componentType" : 5126,
            "count" : 16,
            "type" : "VEC2"
        },
        {
            "bufferView" : 19,
            "componentType" : 5123,
            "count" : 18,
            "type" : "SCALAR"
        }
    ],
    "bufferViews" : [
        {
            "buffer" : 0,
            "byteLength" : 123564,
            "byteOffset" : 0
        },
        {
            "buffer" : 0,
            "byteLength" : 123564,
            "byteOffset" : 123564
        },
        {
            "buffer" : 0,
            "byteLength" : 82376,
            "byteOffset" : 247128
        },
        {
            "buffer" : 0,
            "byteLength" : 23640,
            "byteOffset" : 329504
        },
        {
            "buffer" : 0,
            "byteLength" : 4116,
            "byteOffset" : 353144
        },
        {
            "buffer" : 0,
            "byteLength" : 4116,
            "byteOffset" : 357260
        },
        {
            "buffer" : 0,
            "byteLength" : 2744,
            "byteOffset" : 361376
        },
        {
            "buffer" : 0,
            "byteLength" : 768,
            "byteOffset" : 364120
        },
        {
            "buffer" : 0,
            "byteLength" : 58092,
            "byteOffset" : 364888
        },
        {
            "buffer" : 0,
            "byteLength" : 58092,
            "byteOffset" : 422980
        },
        {
            "buffer" : 0,
            "byteLength" : 38728,
            "byteOffset" : 481072
        },
        {
            "buffer" : 0,
            "byteLength" : 10800,
            "byteOffset" : 519800
        },
        {
            "buffer" : 0,
            "byteLength" : 22512,
            "byteOffset" : 530600
        },
        {
            "buffer" : 0,
            "byteLength" : 22512,
            "byteOffset" : 553112
        },
        {
            "buffer" : 0,
            "byteLength" : 15008,
            "byteOffset" : 575624
        },
        {
            "buffer" : 0,
            "byteLength" : 4404,
            "byteOffset" : 590632
        },
        {
            "buffer" : 0,
            "byteLength" : 192,
            "byteOffset" : 595036
        },
        {
            "buffer" : 0,
            "byteLength" : 192,
            "byteOffset" : 595228
        },
        {
            "buffer" : 0,
            "byteLength" : 128,
            "byteOffset" : 595420
        },
        {
            "buffer" : 0,
            "byteLength" : 36,
            "byteOffset" : 595548
        }
    ],
    "buffers" : [
        {
            "byteLength" : 595584,
            "uri" : "harvestor.bin"
        }
    ]
}
